<?xml version="1.0" standalone="no"?>
<!DOCTYPE svg PUBLIC "-//W3C//DTD SVG 20010904//EN"
 "http://www.w3.org/TR/2001/REC-SVG-20010904/DTD/svg10.dtd">
<svg version="1.0" xmlns="http://www.w3.org/2000/svg"
 width="500.000000pt" height="500.000000pt" viewBox="0 0 500.000000 500.000000"
 preserveAspectRatio="xMidYMid meet">

<g transform="translate(0.000000,500.000000) scale(0.100000,-0.100000)"
fill="#000000" stroke="none">
<path d="M1470 3569 c-185 -15 -406 -103 -552 -218 -449 -354 -549 -978 -233
-1456 79 -119 234 -263 365 -338 70 -40 209 -93 296 -113 70 -16 144 -19 657
-22 471 -3 577 -1 577 10 0 7 -20 39 -45 71 -49 62 -135 131 -203 161 l-42 19
73 76 c138 145 232 323 271 514 21 102 22 351 1 452 -51 246 -203 483 -407
635 -142 107 -354 192 -506 205 -139 12 -159 12 -252 4z m352 -129 c291 -73
522 -264 648 -534 98 -207 116 -466 50 -686 -30 -97 -23 -93 -126 -75 -50 9
-130 15 -182 14 -93 -3 -93 -3 -113 27 -58 85 -137 280 -121 296 8 8 28 -13
82 -84 17 -22 23 -25 42 -15 28 13 34 59 11 93 -14 23 -14 24 2 18 15 -6 16
-3 10 17 -4 13 -15 29 -24 36 -14 11 -14 12 -1 12 8 0 31 -13 50 -29 35 -31
57 -39 44 -17 -5 8 -2 8 9 -2 14 -11 17 -11 17 0 0 9 5 7 11 -5 9 -14 13 -15
19 -5 7 10 14 9 36 -6 22 -14 29 -15 32 -5 3 8 9 5 18 -11 l13 -24 1 25 0 25
18 -22 c20 -25 72 -42 72 -23 0 7 7 10 15 6 23 -8 18 10 -7 28 -15 10 -17 14
-5 10 9 -4 17 -1 17 5 0 6 -10 13 -22 15 -13 3 -32 7 -43 9 -13 3 -10 5 9 6
l30 1 -21 19 c-11 11 -40 25 -64 32 -24 7 -46 16 -49 21 -3 4 -43 9 -88 11
-63 2 -86 7 -100 21 -16 17 -16 18 3 16 11 -1 29 -2 39 -1 19 1 19 1 0 23
l-19 22 27 -17 c24 -15 27 -15 33 1 6 16 7 16 16 0 5 -10 17 -14 29 -11 15 4
19 11 14 32 -4 22 -4 23 6 8 6 -9 8 -27 4 -39 -5 -17 -3 -20 10 -15 9 4 16 2
16 -2 0 -5 11 -4 24 2 18 9 22 15 14 24 -8 10 -6 13 6 13 27 0 18 17 -16 28
-33 10 -33 10 -5 11 26 1 40 21 15 21 -9 0 -8 4 2 10 10 6 11 10 3 10 -7 0
-13 7 -13 16 0 16 -4 16 -75 -2 -11 -3 -5 4 14 17 19 13 29 25 23 27 -16 5
-73 -26 -109 -61 -18 -17 -35 -28 -38 -25 -4 3 17 25 45 49 48 41 50 44 29 51
-13 5 -27 4 -33 -2 -5 -5 -15 -10 -20 -10 -6 0 -2 6 9 12 19 11 19 11 0 19
-17 6 -15 8 13 14 17 4 32 14 32 21 0 8 9 14 20 14 22 0 27 15 8 23 -7 3 2 6
20 6 39 1 43 18 5 24 -20 3 -15 4 15 6 23 0 42 5 42 10 0 17 -26 30 -50 24
-15 -4 -21 -2 -17 4 13 22 -52 7 -79 -17 -26 -24 -26 -24 -15 -3 11 22 11 22
-15 11 -33 -15 -80 -61 -98 -96 -13 -25 -13 -25 -25 -4 -7 14 -8 23 -1 27 5 3
10 11 10 16 0 6 -4 8 -8 5 -11 -7 -2 103 10 127 6 13 5 17 -7 17 -8 0 -15 9
-15 20 0 24 -4 25 -35 4 -13 -8 -27 -29 -30 -45 -4 -16 -11 -29 -16 -29 -5 0
-9 -6 -9 -14 0 -8 -4 -16 -9 -18 -13 -4 -31 -119 -25 -165 l4 -38 -11 34 c-7
23 -13 31 -18 22 -6 -9 -10 -6 -15 11 -4 16 -8 19 -14 11 -5 -9 -13 0 -22 25
-11 31 -14 34 -20 17 -7 -19 -7 -19 -14 3 -4 12 -12 22 -18 22 -5 0 -7 -8 -4
-17 3 -10 -3 -6 -15 10 -11 15 -25 24 -31 21 -5 -3 -18 2 -29 12 -24 21 -24
12 -2 -24 l18 -27 -34 28 c-34 28 -54 30 -32 3 10 -12 8 -14 -11 -9 -22 4 -22
4 -4 -11 19 -16 19 -16 -5 -16 -21 -1 -22 -2 -8 -13 9 -7 14 -17 12 -24 -3 -7
18 -16 54 -24 32 -7 62 -16 67 -20 5 -4 -9 -3 -30 2 -22 4 -50 8 -64 8 -24 0
-24 0 -5 -11 32 -18 77 -58 66 -58 -6 0 -11 -4 -11 -10 0 -5 6 -10 13 -10 18
0 62 -60 45 -61 -7 -1 -17 0 -23 1 -5 1 -46 4 -91 6 -71 3 -83 1 -99 -16 -10
-11 -24 -20 -32 -20 -7 0 -13 -4 -13 -10 0 -5 21 -11 48 -11 l47 -1 -53 -8
c-57 -9 -102 -32 -102 -54 0 -8 -4 -16 -9 -18 -4 -1 -12 -14 -16 -27 -4 -15
-3 -21 3 -17 5 3 12 -4 16 -17 5 -17 8 -19 15 -8 5 7 13 11 18 8 6 -4 20 3 31
13 12 11 25 19 29 18 13 -2 67 22 85 39 10 9 18 11 18 5 0 -17 44 -8 81 18 22
16 29 18 20 7 -17 -22 -7 -34 14 -17 24 20 19 -13 -5 -35 -35 -32 -64 -85 -52
-97 7 -7 18 -2 36 17 14 15 26 31 26 34 0 9 59 44 88 53 27 8 28 -3 2 -27 -11
-10 -20 -24 -20 -30 0 -7 -7 -18 -15 -25 -8 -7 -15 -20 -15 -29 0 -9 -7 -29
-15 -45 -9 -16 -14 -35 -11 -41 2 -6 -2 -22 -10 -36 -18 -32 -17 -39 4 -39 22
0 43 24 73 86 13 27 26 51 29 54 3 3 11 17 19 32 11 22 16 25 25 14 6 -8 17
-15 24 -18 7 -2 25 -37 38 -78 14 -41 43 -113 65 -159 21 -46 38 -85 37 -86
-2 -2 -30 -10 -63 -20 -81 -23 -216 -87 -275 -130 -26 -19 -50 -35 -53 -35
-10 0 -121 -120 -156 -168 -18 -26 -54 -91 -80 -144 l-46 -96 -85 27 c-171 55
-291 131 -416 264 -150 160 -233 342 -254 562 -7 81 -6 104 5 121 19 29 89 86
145 118 l45 26 -46 0 c-56 0 -93 25 -109 74 -9 28 -7 43 13 98 117 323 424
568 777 619 85 12 275 1 362 -21z m-135 -546 c-3 -3 -12 -4 -19 -1 -8 3 -5 6
6 6 11 1 17 -2 13 -5z m413 -28 c0 -2 -7 -7 -16 -10 -8 -3 -12 -2 -9 4 6 10
25 14 25 6z m-40 -226 c0 -5 -4 -10 -10 -10 -5 0 -10 5 -10 10 0 6 5 10 10 10
6 0 10 -4 10 -10z"/>
<path d="M1078 2733 c7 -3 16 -2 19 1 4 3 -2 6 -13 5 -11 0 -14 -3 -6 -6z"/>
<path d="M988 2723 c7 -3 16 -2 19 1 4 3 -2 6 -13 5 -11 0 -14 -3 -6 -6z"/>
<path d="M1282 2585 c0 -16 2 -22 5 -12 2 9 2 23 0 30 -3 6 -5 -1 -5 -18z"/>
<path d="M1046 2435 c-3 -9 -2 -14 3 -11 13 8 34 -21 28 -37 -3 -8 -25 -19
-49 -25 -56 -14 -118 -59 -160 -116 -23 -31 -40 -45 -57 -46 -32 0 -101 -21
-101 -31 0 -4 20 -15 45 -26 29 -11 45 -24 45 -35 0 -10 6 -18 13 -18 15 0 37
41 37 66 0 9 31 30 75 51 67 31 84 35 151 35 80 -1 143 -21 69 -22 l-40 -1 24
-19 c16 -14 38 -20 70 -20 46 0 157 -47 173 -73 5 -8 10 -8 16 -2 15 16 -14
133 -43 170 -15 20 -53 47 -93 67 -37 18 -71 38 -75 45 -8 14 -67 46 -103 57
-15 5 -24 2 -28 -9z"/>
<path d="M1438 1983 c7 -3 16 -2 19 1 4 3 -2 6 -13 5 -11 0 -14 -3 -6 -6z"/>
<path d="M1518 1973 c7 -3 16 -2 19 1 4 3 -2 6 -13 5 -11 0 -14 -3 -6 -6z"/>
<path d="M1588 1963 c7 -3 16 -2 19 1 4 3 -2 6 -13 5 -11 0 -14 -3 -6 -6z"/>
</g>
</svg>
