<?xml version="1.0" standalone="no"?>
<!DOCTYPE svg PUBLIC "-//W3C//DTD SVG 20010904//EN"
 "http://www.w3.org/TR/2001/REC-SVG-20010904/DTD/svg10.dtd">
<svg version="1.0" xmlns="http://www.w3.org/2000/svg"
 width="900.000000pt" height="559.000000pt" viewBox="0 0 900.000000 559.000000"
 preserveAspectRatio="xMidYMid meet">

<g transform="translate(0.000000,559.000000) scale(0.100000,-0.100000)"
fill="#000000" stroke="none">
<path d="M2343 5313 c-34 -32 -82 -88 -106 -126 -24 -37 -47 -64 -52 -60 -4 5
-5 3 -1 -4 4 -7 -2 -32 -12 -55 -11 -24 -28 -63 -39 -88 -19 -43 -67 -100 -84
-100 -13 0 -39 43 -50 82 -10 40 3 84 22 73 15 -10 10 2 -8 16 -11 10 -14 10
-9 2 4 -7 3 -13 -2 -13 -5 0 -15 -20 -21 -44 -13 -52 -15 -156 -3 -156 7 0 24
-47 48 -132 7 -23 -18 -24 -52 -1 -14 9 -59 60 -99 113 -40 53 -87 109 -103
125 -17 16 -28 33 -25 38 3 6 1 7 -5 3 -6 -3 -17 2 -24 12 -25 33 -201 132
-214 119 -2 -2 15 -12 38 -21 98 -37 237 -159 312 -273 31 -46 49 -110 35
-119 -5 -3 -7 -9 -4 -14 3 -5 -7 -7 -21 -4 -24 4 -26 3 -14 -11 7 -8 21 -15
32 -15 11 0 16 -4 12 -11 -3 -6 9 -27 28 -47 67 -73 81 -92 75 -99 -4 -3 -15
1 -25 10 -18 16 -84 47 -99 47 -4 0 0 -5 10 -11 32 -19 17 -25 -50 -22 l-68 3
55 -16 c57 -16 90 -38 90 -60 0 -19 -36 -27 -61 -14 -18 10 -25 9 -42 -9 -12
-12 -16 -21 -10 -21 7 0 15 5 18 10 4 6 11 7 17 4 6 -4 44 -6 84 -6 53 1 74
-2 74 -11 0 -6 -24 -34 -52 -60 l-53 -49 52 42 c36 30 62 42 87 44 19 1 34 -3
33 -9 -1 -5 3 -9 10 -8 14 3 27 -32 18 -47 -3 -5 -2 -10 4 -10 6 0 7 -15 4
-35 -4 -24 -2 -35 7 -35 8 0 10 -8 6 -24 -3 -14 -2 -28 4 -31 16 -10 12 -65
-5 -71 -27 -11 -17 -34 15 -34 23 0 31 -5 36 -25 7 -29 9 -30 51 -7 l32 17
-19 42 c-10 23 -16 50 -13 61 3 13 -7 30 -31 54 -32 31 -36 41 -42 105 -4 41
-3 73 3 76 14 9 54 -4 47 -14 -3 -5 2 -6 10 -3 9 3 54 -13 101 -35 67 -33 102
-59 166 -122 45 -44 83 -78 86 -76 2 3 -22 32 -54 65 -60 61 -198 158 -240
168 -12 3 -20 10 -17 15 3 5 13 5 23 -1 23 -12 32 -3 25 25 -3 13 -1 26 5 29
17 11 13 22 -10 23 -23 2 -55 27 -71 56 -7 13 -4 30 11 60 27 54 77 113 84 98
3 -7 5 -7 3 1 -8 37 165 99 291 106 92 4 235 -18 248 -39 4 -5 16 -14 28 -20
l22 -11 -22 22 c-47 50 -185 76 -306 60 -119 -16 -206 -45 -271 -89 -17 -11
-35 -17 -40 -14 -6 3 -8 3 -4 -2 7 -7 -57 -65 -71 -65 -12 0 -31 23 -31 37 0
7 7 10 15 7 10 -4 15 0 15 14 0 12 5 24 10 27 18 11 11 33 -9 28 -10 -3 -29 1
-41 7 -21 11 -22 17 -17 84 11 138 113 347 226 461 36 36 62 65 60 65 -3 0
-33 -26 -66 -57z m-80 -881 c-2 -7 2 -12 7 -12 6 0 10 -5 10 -11 0 -8 -5 -8
-15 1 -11 9 -18 10 -29 1 -10 -9 -21 -9 -42 0 -27 10 -28 12 -9 19 16 7 17 9
3 9 -9 1 -20 -4 -23 -9 -4 -6 -11 -8 -16 -4 -22 13 6 24 59 21 38 -2 56 -7 55
-15z m-228 -32 c3 -5 1 -10 -4 -10 -6 0 -11 5 -11 10 0 6 2 10 4 10 3 0 8 -4
11 -10z"/>
<path d="M2104 5219 c-19 -22 -19 -22 4 -8 12 8 22 17 22 21 0 12 -6 9 -26
-13z"/>
<path d="M2046 5133 c-6 -14 -5 -15 5 -6 7 7 10 15 7 18 -3 3 -9 -2 -12 -12z"/>
<path d="M1403 5133 c9 -2 25 -2 35 0 9 3 1 5 -18 5 -19 0 -27 -2 -17 -5z"/>
<path d="M1468 5123 c7 -3 16 -2 19 1 4 3 -2 6 -13 5 -11 0 -14 -3 -6 -6z"/>
<path d="M1730 4830 c0 -5 5 -10 11 -10 5 0 7 5 4 10 -3 6 -8 10 -11 10 -2 0
-4 -4 -4 -10z"/>
<path d="M1809 4753 c-13 -16 -12 -17 4 -4 9 7 17 15 17 17 0 8 -8 3 -21 -13z"/>
<path d="M2225 4749 c-4 -6 -5 -12 -2 -15 2 -3 7 2 10 11 7 17 1 20 -8 4z"/>
<path d="M1575 4511 c-160 -46 -329 -179 -434 -341 -41 -62 -45 -65 -89 -70
-42 -4 -49 -9 -63 -40 -9 -19 -21 -65 -27 -102 -12 -76 2 -163 38 -245 l21
-47 28 61 c16 34 46 79 66 102 33 36 36 43 24 58 -12 15 -12 16 3 10 12 -4 22
4 37 29 l21 36 -32 69 c-17 38 -36 69 -40 69 -11 0 4 28 50 98 30 46 36 51 51
40 14 -11 14 -11 4 3 -10 13 -3 24 46 72 32 32 65 56 72 55 8 -2 13 2 12 9 -3
14 33 41 106 78 87 43 131 57 216 65 l80 7 -65 1 c-36 0 -92 -7 -125 -17z"/>
<path d="M2185 4360 c-4 -6 5 -10 20 -10 15 0 24 4 20 10 -3 6 -12 10 -20 10
-8 0 -17 -4 -20 -10z"/>
<path d="M2145 4329 c-4 -6 -5 -12 -2 -15 2 -3 7 2 10 11 7 17 1 20 -8 4z"/>
<path d="M2200 4329 c0 -5 5 -7 10 -4 6 3 10 8 10 11 0 2 -4 4 -10 4 -5 0 -10
-5 -10 -11z"/>
<path d="M2177 4300 c3 -11 9 -20 13 -20 5 0 6 9 3 20 -3 11 -9 20 -13 20 -5
0 -6 -9 -3 -20z"/>
<path d="M2228 4293 c-24 -6 -25 -2 23 -185 l9 -37 38 13 c20 7 37 17 37 22 0
15 -79 194 -85 193 -3 -1 -13 -3 -22 -6z"/>
<path d="M1840 4236 c-45 -66 -87 -180 -106 -288 -15 -85 -20 -97 -45 -112
-36 -21 -39 -21 -40 12 -2 24 -2 24 -6 4 -3 -13 1 -30 7 -38 9 -10 9 -18 1
-27 -6 -8 -7 -17 -2 -23 5 -5 11 -29 13 -54 2 -25 8 -43 13 -42 12 4 115 101
115 108 0 2 -12 23 -27 46 -26 42 -26 44 -14 116 17 100 45 183 91 270 22 39
37 72 35 72 -2 0 -18 -20 -35 -44z"/>
<path d="M2167 4269 c7 -7 15 -10 18 -7 3 3 -2 9 -12 12 -14 6 -15 5 -6 -5z"/>
<path d="M1080 4255 c-7 -9 -11 -17 -9 -20 3 -2 10 5 17 15 14 24 10 26 -8 5z"/>
<path d="M2520 4236 c0 -2 8 -10 18 -17 15 -13 16 -12 3 4 -13 16 -21 21 -21
13z"/>
<path d="M6369 4123 c-84 -87 -128 -160 -180 -299 -22 -58 -63 -114 -83 -114
-21 0 -44 33 -51 73 -10 51 -21 54 -29 9 -9 -57 -7 -81 9 -115 8 -18 24 -58
34 -90 17 -50 18 -59 6 -64 -25 -9 -60 22 -138 119 -40 51 -101 119 -135 150
-61 56 -178 122 -237 133 -16 3 -2 -5 33 -18 78 -31 122 -60 202 -134 117
-107 188 -229 149 -254 -8 -5 -20 -7 -27 -4 -8 3 -12 0 -10 -7 3 -7 15 -15 29
-19 13 -4 20 -7 16 -8 -5 -1 16 -29 47 -63 31 -34 54 -63 52 -65 -2 -3 -18 3
-35 11 -17 9 -43 21 -58 26 -25 9 -26 8 -10 -4 27 -21 21 -26 -35 -27 -29 -1
-44 -3 -33 -6 37 -9 83 -34 89 -49 8 -20 -28 -36 -57 -25 -20 8 -29 6 -43 -10
-9 -10 -14 -22 -10 -27 4 -4 14 1 21 11 8 12 15 14 20 7 3 -5 10 -8 14 -6 13
9 136 11 149 3 6 -5 16 -6 20 -3 12 7 59 -43 70 -74 5 -14 6 -37 1 -52 -5 -19
-4 -25 4 -23 23 9 55 -30 62 -72 4 -29 3 -43 -4 -43 -20 0 -11 -19 11 -22 17
-2 26 -17 42 -63 23 -66 30 -75 64 -75 28 0 28 3 -9 91 -17 41 -35 88 -40 106
-6 20 -23 40 -44 53 -19 12 -37 31 -40 43 -8 42 -15 124 -10 129 8 8 55 -3 50
-12 -3 -5 3 -6 14 -3 10 3 22 0 25 -6 4 -6 17 -11 30 -11 29 0 130 -62 200
-123 30 -26 74 -76 97 -112 33 -50 46 -62 56 -53 28 23 11 -9 -18 -35 -34 -29
-33 -33 4 -16 14 6 29 21 35 34 13 29 85 87 153 125 30 16 50 30 45 30 -15 0
-111 -51 -133 -72 -12 -11 -26 -17 -33 -13 -6 4 -9 1 -8 -7 2 -7 -3 -12 -9
-11 -7 2 -12 -2 -10 -8 5 -26 -34 -15 -55 14 -57 84 -118 144 -198 195 -47 30
-87 58 -90 62 -3 4 -12 7 -20 8 -8 0 -33 7 -55 16 -22 8 -48 15 -57 16 -22 0
-23 16 -2 24 24 9 93 7 113 -3 13 -7 17 -5 17 9 0 12 -12 24 -29 31 -67 28
-74 72 -25 146 40 59 47 65 128 107 93 47 152 61 260 61 92 0 210 -26 210 -47
0 -4 5 -8 12 -8 6 0 3 9 -7 20 -10 11 -24 20 -32 20 -8 0 -12 3 -10 8 7 10
-62 17 -178 16 -75 0 -119 -6 -175 -23 -69 -21 -210 -95 -210 -110 0 -4 -14
-15 -30 -25 -25 -14 -34 -15 -45 -6 -20 16 -19 41 0 34 10 -4 15 0 15 14 0 12
5 24 10 27 21 13 9 25 -24 25 -26 0 -35 5 -40 23 -12 46 -5 102 25 191 43 128
104 239 173 313 73 79 69 83 -5 6z"/>
<path d="M1314 4118 l-29 -33 33 29 c30 28 37 36 29 36 -2 0 -16 -15 -33 -32z"/>
<path d="M1821 4114 c0 -11 3 -14 6 -6 3 7 2 16 -1 19 -3 4 -6 -2 -5 -13z"/>
<path d="M1240 4050 c-9 -6 -10 -10 -3 -10 6 0 15 5 18 10 8 12 4 12 -15 0z"/>
<path d="M1644 3945 c-3 -8 -4 -20 -2 -27 3 -7 7 -1 10 15 6 29 1 36 -8 12z"/>
<path d="M5488 3933 c6 -2 18 -2 25 0 6 3 1 5 -13 5 -14 0 -19 -2 -12 -5z"/>
<path d="M1208 3893 c7 -3 16 -2 19 1 4 3 -2 6 -13 5 -11 0 -14 -3 -6 -6z"/>
<path d="M1326 3847 c33 -18 85 -53 114 -78 67 -56 161 -169 153 -183 -4 -6 1
-5 11 3 12 10 14 16 5 21 -6 5 -8 13 -4 20 5 8 4 11 -3 6 -9 -5 -75 65 -69 75
1 2 0 3 -2 2 -2 -2 -29 21 -60 50 -31 28 -87 67 -124 85 -86 42 -100 41 -21
-1z"/>
<path d="M1879 3853 c-13 -16 -12 -17 4 -4 9 7 17 15 17 17 0 8 -8 3 -21 -13z"/>
<path d="M2387 3822 c-11 -2 -16 -10 -13 -20 3 -9 41 -134 85 -277 43 -143
107 -352 141 -465 34 -113 70 -232 81 -265 11 -33 53 -169 94 -302 62 -207 77
-246 101 -267 16 -13 30 -23 32 -22 1 2 -13 50 -31 107 -18 57 -55 176 -82
264 -26 88 -103 340 -171 560 -67 220 -141 463 -164 540 -23 77 -45 143 -49
146 -3 3 -14 4 -24 1z"/>
<path d="M7085 3633 c4 -10 16 -55 28 -100 12 -46 25 -83 28 -83 9 0 -19 123
-37 167 -14 33 -32 48 -19 16z"/>
<path d="M7235 3450 c-3 -5 -1 -10 4 -10 6 0 11 5 11 10 0 6 -2 10 -4 10 -3 0
-8 -4 -11 -10z"/>
<path d="M7548 3443 c7 -3 16 -2 19 1 4 3 -2 6 -13 5 -11 0 -14 -3 -6 -6z"/>
<path d="M6623 3432 c-6 -4 31 -7 83 -7 51 0 86 3 76 7 -23 9 -144 9 -159 0z"/>
<path d="M7453 3422 c-23 -10 -48 -24 -55 -31 -7 -8 -8 -12 -3 -9 30 14 85 39
106 47 13 5 17 10 9 10 -8 0 -34 -8 -57 -17z"/>
<path d="M6820 3410 c8 -5 20 -10 25 -10 6 0 3 5 -5 10 -8 5 -19 10 -25 10 -5
0 -3 -5 5 -10z"/>
<path d="M1408 3363 c7 -3 16 -2 19 1 4 3 -2 6 -13 5 -11 0 -14 -3 -6 -6z"/>
<path d="M1330 3347 c-34 -13 -80 -36 -70 -37 3 0 34 11 70 25 36 13 58 24 50
24 -8 0 -31 -6 -50 -12z"/>
<path d="M5723 3353 c9 -2 23 -2 30 0 6 3 -1 5 -18 5 -16 0 -22 -2 -12 -5z"/>
<path d="M7075 3349 c7 -11 35 -12 35 -1 0 4 -9 8 -20 9 -11 1 -18 -2 -15 -8z"/>
<path d="M5678 3343 c7 -3 16 -2 19 1 4 3 -2 6 -13 5 -11 0 -14 -3 -6 -6z"/>
<path d="M5574 3310 c-130 -65 -267 -195 -336 -317 -27 -48 -33 -53 -74 -59
-56 -8 -69 -26 -85 -118 -14 -81 -1 -170 35 -251 l23 -50 21 48 c12 27 38 71
58 98 26 36 34 54 29 70 -6 17 -4 21 7 16 9 -3 21 7 32 28 l18 33 -37 71 -37
70 23 38 c38 65 70 104 80 98 5 -3 6 0 3 8 -3 9 17 35 52 66 84 77 116 99 201
142 43 21 71 39 62 39 -9 0 -42 -13 -75 -30z"/>
<path d="M1068 3303 c7 -3 16 -2 19 1 4 3 -2 6 -13 5 -11 0 -14 -3 -6 -6z"/>
<path d="M1205 3246 c28 -19 66 -51 85 -71 19 -21 36 -33 38 -27 6 18 -135
132 -163 132 -5 0 13 -15 40 -34z"/>
<path d="M7216 3263 c-4 -5 -24 -8 -44 -8 -144 -2 -153 -4 -142 -24 18 -35 -6
-71 -48 -71 -31 0 -23 -24 9 -28 81 -9 89 -32 11 -32 -26 0 -54 -5 -62 -11
-11 -7 4 -9 53 -4 58 6 67 4 67 -10 0 -26 -30 -76 -61 -103 -17 -13 -27 -27
-25 -30 3 -3 1 -11 -4 -17 -8 -9 -2 -14 21 -19 18 -3 33 -5 33 -4 1 2 11 23
24 46 12 24 22 52 22 61 0 20 33 54 55 57 8 1 15 -2 15 -7 0 -5 5 -9 11 -9 5
0 7 5 3 11 -7 12 31 9 98 -9 30 -8 35 -7 31 5 -3 7 -13 13 -22 12 -30 -3 -41
1 -41 15 0 17 21 26 63 27 l32 2 -35 6 c-22 4 -34 12 -32 20 3 13 -20 11 -62
-5 -9 -3 -16 -1 -16 4 0 6 9 14 20 17 11 3 20 10 20 14 0 4 18 16 40 27 38 18
52 34 30 34 -5 0 -10 9 -10 20 0 14 -7 20 -23 20 -13 0 -27 -3 -31 -7z"/>
<path d="M6039 3224 l-24 -27 28 18 c15 9 27 21 27 26 0 14 -5 11 -31 -17z"/>
<path d="M1040 3138 c-33 -40 -75 -101 -92 -135 -33 -63 -44 -70 -95 -64 -38
5 -65 -134 -48 -246 l7 -48 30 38 c16 20 36 37 44 37 8 0 14 8 14 18 1 9 25
34 55 55 55 38 55 38 39 63 -9 13 -14 27 -10 31 3 3 -7 18 -23 33 l-29 28 27
49 c38 69 101 149 115 145 6 -2 8 0 3 4 -4 4 5 20 20 36 15 15 22 28 15 28 -6
0 -39 -33 -72 -72z"/>
<path d="M2341 3157 l-53 -22 5 -75 c2 -41 2 -65 0 -52 -2 12 -9 22 -14 22 -6
0 -7 -9 -4 -20 4 -12 2 -20 -5 -20 -6 0 -9 4 -6 8 8 13 -7 29 -34 37 -24 7
-24 7 -5 -9 12 -9 15 -15 7 -16 -7 0 -10 -5 -7 -10 4 -6 11 -8 16 -5 5 4 12
-1 15 -9 3 -9 10 -14 14 -11 5 3 15 2 24 -1 12 -5 16 -21 16 -69 l0 -62 61 -7
c34 -4 63 -5 66 -2 3 2 0 53 -6 113 -5 59 -9 119 -9 133 4 58 -3 100 -14 99
-7 0 -37 -10 -67 -22z"/>
<path d="M5940 3123 c-50 -64 -120 -250 -120 -319 0 -11 -5 -25 -12 -32 -9 -9
-8 -12 4 -12 12 0 19 17 27 63 19 110 77 259 122 314 6 7 9 13 6 13 -3 0 -15
-12 -27 -27z"/>
<path d="M1295 3090 c-3 -5 -1 -10 4 -10 6 0 11 5 11 10 0 6 -2 10 -4 10 -3 0
-8 -4 -11 -10z"/>
<path d="M888 3073 c-18 -21 -31 -43 -25 -43 2 0 13 14 25 30 25 33 24 41 0
13z"/>
<path d="M7476 3046 c75 -51 142 -131 187 -223 26 -54 45 -83 56 -83 10 0 12
3 5 8 -6 4 -24 32 -39 62 -15 30 -40 73 -55 95 -47 69 -165 175 -195 175 -5 0
13 -15 41 -34z"/>
<path d="M2251 3051 c-10 -6 -9 -10 3 -14 8 -3 18 -2 21 3 8 13 -9 20 -24 11z"/>
<path d="M1443 3003 c-29 -2 -53 -8 -53 -13 0 -5 18 -28 40 -51 22 -23 38 -44
37 -46 -2 -2 -21 4 -42 12 -20 9 -40 14 -43 11 -3 -3 0 -6 6 -6 7 0 12 -4 12
-10 0 -5 -19 -10 -42 -11 l-43 -1 45 -11 c30 -8 46 -18 48 -31 3 -16 -1 -18
-27 -14 -31 5 -62 -15 -47 -29 4 -4 10 -3 14 2 8 11 97 19 119 11 13 -5 13 -9
2 -24 -12 -15 -12 -16 1 -6 33 24 48 23 66 -4 9 -14 17 -33 17 -42 0 -8 5 -18
11 -22 16 -11 56 -10 56 2 0 5 -6 7 -14 4 -8 -3 -16 3 -19 15 -3 13 1 21 12
24 14 4 14 5 -1 6 -12 1 -18 9 -18 26 0 28 2 28 97 0 67 -20 40 1 -35 27 l-67
23 50 3 c77 4 86 11 43 33 -41 21 -58 56 -37 73 8 6 15 19 16 30 1 15 -4 17
-28 12 -15 -3 -31 -1 -34 4 -6 10 -34 10 -142 3z"/>
<path d="M1104 2968 l-19 -23 23 19 c21 18 27 26 19 26 -2 0 -12 -10 -23 -22z"/>
<path d="M7227 2935 c4 -16 7 -44 7 -62 1 -17 4 -29 8 -27 3 2 9 -2 11 -8 3
-7 5 -4 5 7 0 11 -8 43 -19 70 -10 28 -16 37 -12 20z"/>
<path d="M1967 2929 c-13 -14 -16 -29 -12 -49 4 -20 2 -29 -10 -34 -20 -7 -9
-28 13 -24 10 2 19 -8 25 -27 19 -61 21 -63 44 -54 21 8 22 10 9 56 -8 26 -17
64 -20 84 -4 19 -12 43 -19 53 -11 15 -13 15 -30 -5z"/>
<path d="M5379 2923 c-13 -16 -12 -17 4 -4 9 7 17 15 17 17 0 8 -8 3 -21 -13z"/>
<path d="M1055 2910 c-4 -6 -11 -7 -17 -4 -7 4 -8 2 -4 -5 6 -9 11 -9 22 0 14
11 18 19 10 19 -3 0 -8 -5 -11 -10z"/>
<path d="M1238 2883 c7 -3 16 -2 19 1 4 3 -2 6 -13 5 -11 0 -14 -3 -6 -6z"/>
<path d="M1129 2851 c-100 -50 -194 -141 -258 -248 l-30 -53 27 0 c19 0 23 3
13 9 -11 7 -8 18 14 55 36 62 114 148 127 139 6 -3 8 -1 4 5 -7 12 30 41 108
83 56 31 53 39 -5 10z"/>
<path d="M6610 2770 c-55 -6 -62 -31 -11 -41 58 -12 122 5 107 29 -8 14 -43
18 -96 12z"/>
<path d="M1780 2744 c19 -16 43 -37 53 -47 10 -10 23 -17 29 -15 12 4 -32 41
-87 73 -27 16 -27 15 5 -11z"/>
<path d="M1872 2704 c10 -10 20 -16 22 -13 3 3 -5 11 -17 18 -21 13 -21 12 -5
-5z"/>
<path d="M5815 2680 c-3 -6 6 -15 21 -20 31 -12 37 -9 28 14 -7 18 -39 22 -49
6z"/>
<path d="M7674 2658 c-7 -11 22 -38 40 -38 6 0 18 5 26 10 11 7 12 12 3 21
-16 16 -61 20 -69 7z"/>
<path d="M1023 2615 c0 -8 4 -12 9 -9 5 3 6 10 3 15 -9 13 -12 11 -12 -6z"/>
<path d="M795 2599 c-4 -6 -5 -12 -2 -15 2 -3 7 2 10 11 7 17 1 20 -8 4z"/>
<path d="M1991 2603 c-9 -4 -3 -10 18 -19 26 -11 31 -18 26 -34 -6 -17 -2 -20
28 -20 l35 0 -10 40 c-10 38 -13 40 -47 39 -20 0 -42 -3 -50 -6z"/>
<path d="M5750 2603 c1 -5 8 -35 16 -68 28 -109 32 -133 21 -144 -6 -6 -7 -14
-3 -18 4 -4 10 -2 14 4 4 7 14 -5 24 -29 14 -32 14 -37 3 -28 -8 7 -15 19 -15
26 0 22 -37 16 -43 -6 -3 -11 -11 -20 -19 -20 -10 0 -9 3 2 10 8 5 11 10 5 10
-5 0 -16 -4 -24 -9 -11 -7 -6 -12 20 -19 96 -27 385 -158 524 -237 22 -13 55
-26 73 -30 17 -4 32 -13 32 -20 0 -12 89 -85 105 -85 3 0 21 -11 40 -25 18
-14 35 -22 37 -18 3 4 3 3 2 -4 -5 -18 79 -83 107 -83 13 0 34 -3 46 -6 17 -5
20 -10 12 -23 -8 -13 11 -37 102 -128 61 -62 116 -110 122 -106 5 3 7 2 4 -4
-3 -5 19 -36 49 -69 31 -32 70 -76 87 -98 18 -21 42 -51 54 -66 24 -29 95 -47
117 -29 105 84 135 112 130 121 -4 7 -2 8 5 4 18 -11 146 128 134 147 -3 6 -1
7 5 4 6 -4 27 20 49 55 50 80 60 99 35 69 l-19 -24 -17 26 c-15 23 -55 50 -41
28 3 -5 1 -13 -5 -16 -6 -4 -10 -3 -9 2 4 26 -2 73 -11 73 -5 0 -7 -7 -4 -15
3 -8 0 -31 -7 -52 -7 -21 -12 -44 -11 -50 4 -18 -9 -16 -36 6 -19 17 -21 23
-11 48 18 44 12 212 -10 283 -18 56 -69 146 -78 136 -2 -2 10 -26 28 -54 17
-28 32 -62 33 -76 0 -14 5 -26 10 -26 4 0 6 -13 4 -30 -3 -16 -1 -30 4 -30 13
0 9 -109 -6 -174 -13 -56 -30 -81 -48 -70 -4 3 -8 1 -8 -4 0 -10 -65 -42 -87
-42 -13 0 -13 3 -3 15 10 12 10 15 -1 15 -10 1 -9 5 4 14 16 12 17 27 14 130
-3 77 0 117 7 120 7 3 6 5 -1 5 -7 1 -13 14 -13 30 0 16 -18 58 -40 96 -29 46
-39 72 -34 87 4 14 2 18 -5 14 -6 -4 -11 -2 -11 4 0 6 -5 8 -11 4 -8 -5 -8 -8
0 -14 18 -11 -12 -31 -47 -32 -23 -1 -29 -5 -25 -17 2 -9 -2 -5 -10 8 -8 14
-17 19 -21 13 -4 -6 -27 -8 -59 -5 -28 2 -71 0 -94 -5 -28 -7 -45 -6 -52 1 -8
8 -11 8 -11 -1 0 -9 -6 -9 -24 -1 -27 12 -68 -3 -65 -24 1 -7 -1 -24 -5 -39
-8 -28 -38 -38 -51 -18 -4 6 -11 7 -17 4 -8 -5 -9 3 -5 23 5 23 1 35 -14 49
-13 11 -23 14 -27 8 -20 -29 -122 -47 -145 -24 -13 12 37 46 144 99 90 45 136
58 264 74 17 2 7 5 -23 6 -62 1 -185 -22 -257 -50 -27 -11 -76 -22 -107 -26
-54 -5 -58 -4 -58 15 0 15 -5 20 -15 16 -16 -6 -16 -7 -20 81 -5 77 -37 269
-47 276 -5 3 -29 1 -54 -4 -50 -12 -57 -37 -14 -47 23 -6 25 -10 22 -58 -3
-33 0 -52 7 -52 6 0 11 -7 11 -15 0 -8 -4 -15 -10 -15 -13 0 -13 -56 1 -121
12 -56 3 -183 -12 -174 -5 4 -9 1 -9 -4 0 -6 -11 -11 -25 -11 -24 0 -25 3 -25
56 0 30 -5 65 -11 76 -9 16 -8 23 2 29 11 7 11 9 1 9 -7 0 -17 -10 -22 -22 -7
-18 -9 -19 -9 -5 -1 13 -10 17 -38 17 -32 1 -35 2 -19 11 12 8 25 8 40 1 15
-7 25 -6 33 3 12 13 7 55 -7 55 -5 0 -6 -9 -3 -20 4 -14 0 -20 -11 -20 -10 0
-15 4 -12 9 6 9 -49 21 -96 21 -34 0 -38 -27 -5 -33 l22 -4 -22 -2 c-13 0 -23
-5 -23 -10 0 -5 -27 -11 -60 -13 -33 -1 -60 0 -60 4 0 4 -8 8 -17 11 -10 2 1
2 25 -1 44 -4 46 -3 36 22 -6 16 -39 22 -47 9 -2 -5 -2 -2 -1 5 2 6 -2 12 -9
12 -8 0 -8 3 2 9 16 10 6 31 -15 31 -8 0 -14 5 -14 10 0 6 5 10 10 10 6 0 10
5 10 11 0 7 -14 10 -35 7 -27 -3 -35 0 -36 12 0 10 -3 9 -9 -5 -6 -13 -9 -15
-9 -5 -1 13 -3 13 -10 0 -6 -8 -8 -17 -5 -21 2 -4 0 -10 -6 -14 -23 -14 5 104
46 188 l23 48 -25 9 c-21 8 -134 30 -156 30 -5 0 -8 -3 -8 -7z m163 -286 c7 4
6 -1 -2 -10 -19 -23 -29 -21 -26 6 4 37 8 43 12 19 3 -14 9 -20 16 -15z m52
-37 c3 -5 1 -10 -4 -10 -6 0 -11 5 -11 10 0 6 2 10 4 10 3 0 8 -4 11 -10z
m101 -76 c18 -14 18 -14 -6 -3 -31 14 -36 19 -24 19 6 0 19 -7 30 -16z m88
-43 c4 -5 -3 -7 -14 -4 -23 6 -26 13 -6 13 8 0 17 -4 20 -9z m1090 -126 c5
-22 4 -26 -4 -15 -9 13 -14 11 -35 -12 -13 -16 -28 -35 -33 -45 -9 -15 -11
-15 -27 1 -17 17 -17 19 1 53 10 20 24 36 29 36 6 -1 19 6 30 13 22 16 30 10
39 -31z m-491 -132 c-1 -49 -3 -89 -3 -91 0 -1 -15 4 -34 12 -19 8 -38 11 -42
8 -10 -10 2 97 15 131 8 21 17 27 39 27 l28 0 -3 -87z m372 4 c-13 -18 -34
-54 -45 -80 -22 -50 -31 -55 -50 -32 -15 18 -6 47 33 105 38 55 46 61 69 49
17 -9 17 -12 -7 -42z m-96 -137 c5 0 -8 -47 -27 -103 -32 -97 -36 -103 -59
-99 -13 2 -26 9 -29 14 -6 9 32 115 48 133 4 5 8 15 8 22 0 20 23 43 38 38 8
-3 17 -5 21 -5z"/>
<path d="M6830 2590 c0 -5 5 -10 10 -10 6 0 10 5 10 10 0 6 -4 10 -10 10 -5 0
-10 -4 -10 -10z"/>
<path d="M1497 2560 c-8 -16 -12 -31 -9 -34 3 -3 25 -6 49 -6 40 0 44 2 41 22
-2 13 -15 27 -35 35 -30 12 -32 11 -46 -17z"/>
<path d="M7164 2551 c3 -14 8 -53 12 -85 l7 -59 19 24 c21 27 71 120 66 123
-2 1 -27 7 -56 12 l-53 11 5 -26z"/>
<path d="M7708 2566 c-39 -9 -45 -14 -38 -26 6 -8 15 -35 22 -58 l11 -44 22
24 c28 28 60 119 42 117 -7 -1 -33 -6 -59 -13z"/>
<path d="M1950 2566 c0 -2 7 -7 16 -10 8 -3 12 -2 9 4 -6 10 -25 14 -25 6z"/>
<path d="M2358 2539 c-3 -20 0 -46 9 -62 15 -30 15 -30 -37 -41 -22 -4 -29 0
-45 30 -18 34 -20 35 -64 28 -25 -4 -47 -8 -49 -9 -1 -1 3 -16 9 -34 13 -37
13 -37 -26 -45 -28 -6 -33 -3 -48 29 -16 34 -20 36 -50 30 -67 -14 -65 -11
-53 -58 6 -23 27 -75 45 -115 27 -57 38 -71 50 -66 9 4 31 9 49 12 17 2 32 5
32 7 0 1 -11 22 -24 46 -13 24 -26 56 -30 72 -6 26 -5 27 32 27 38 0 39 -1 87
-87 69 -126 97 -165 204 -283 115 -128 163 -173 262 -249 274 -209 603 -349
999 -425 36 -7 71 -15 77 -19 6 -4 25 -2 42 4 38 13 37 14 45 -31 6 -33 4 -36
-25 -47 -40 -15 -47 -11 -55 32 -7 39 -14 42 -54 19 -25 -15 -27 -21 -22 -58
2 -23 6 -42 7 -44 1 -1 19 5 39 13 l38 16 82 -73 c46 -40 92 -78 102 -85 18
-11 18 -11 -3 -6 -20 5 -59 -11 -258 -102 -39 -18 -82 -36 -95 -40 -14 -4 -29
-11 -35 -15 -5 -4 -68 -33 -140 -65 -71 -32 -133 -61 -138 -65 -4 -3 6 -19 23
-35 l30 -28 102 46 c57 25 184 82 283 125 99 44 203 91 231 104 l51 25 123
-109 c68 -60 133 -111 146 -114 29 -7 60 10 67 37 7 26 3 29 -198 202 -77 67
-142 125 -143 129 -2 5 -33 31 -69 58 l-64 49 40 20 c38 20 39 22 30 53 -5 18
-9 35 -9 39 0 5 65 39 75 39 3 0 5 -18 5 -40 0 -22 3 -40 7 -40 4 0 27 8 51
17 44 16 44 16 38 58 -6 40 -5 42 30 58 20 10 39 15 42 12 4 -3 6 -23 7 -43 0
-27 4 -37 15 -35 8 1 46 4 84 8 59 6 73 11 105 41 35 33 35 35 16 46 -30 19
-143 19 -315 2 -151 -15 -158 -15 -260 6 -124 25 -328 91 -385 124 -22 13 -51
35 -65 47 -14 13 -73 63 -130 110 -58 48 -118 101 -135 119 -16 18 -48 46 -70
62 -22 16 -69 57 -105 92 -36 34 -75 69 -87 78 -13 8 -84 73 -159 144 -75 71
-144 134 -154 139 -10 6 -30 25 -45 43 -15 18 -32 29 -38 25 -7 -3 -9 -3 -5 1
14 16 -31 49 -64 48 -18 0 -37 6 -43 15 -10 14 -13 11 -17 -18z m43 -175 c9
-3 34 -30 54 -62 21 -31 73 -97 116 -147 241 -279 607 -500 1027 -620 128 -37
207 -72 238 -106 22 -24 24 -24 -152 10 -374 73 -716 239 -1005 487 -53 46
-100 80 -104 76 -4 -4 -5 -2 -3 5 2 6 -20 38 -48 70 -68 79 -130 164 -170 235
-19 33 -34 62 -34 65 0 4 44 -3 81 -13z m279 -138 c0 5 103 -82 191 -160 39
-35 77 -101 65 -113 -2 -2 -52 42 -110 98 -62 59 -103 105 -96 109 7 4 3 13
-10 25 -11 10 -20 14 -20 10 0 -12 -38 24 -82 80 l-41 50 52 -52 c28 -28 51
-49 51 -47z m417 -361 c56 -49 102 -94 102 -98 1 -4 -43 22 -98 59 -79 54
-101 74 -109 101 -6 19 -7 33 -3 31 4 -2 53 -43 108 -93z"/>
<path d="M6593 2540 c-43 -32 -109 -143 -97 -162 4 -6 10 -5 15 3 4 8 12 14
16 15 4 0 29 7 55 14 34 10 48 20 53 37 18 73 194 78 348 10 31 -14 57 -24 57
-21 0 16 -147 69 -239 85 -124 22 -134 25 -126 39 14 22 -44 8 -82 -20z"/>
<path d="M7369 2534 c-8 -9 -34 -57 -59 -107 -46 -93 -67 -111 -63 -54 l2 32
-13 -35 c-17 -41 -20 -61 -6 -40 8 12 10 11 10 -7 0 -12 -5 -25 -11 -28 -13
-8 -51 24 -43 37 3 4 2 7 -3 6 -5 -2 -22 10 -38 25 -17 16 -39 33 -50 39 -11
6 0 -8 23 -30 28 -25 41 -45 36 -53 -4 -7 -3 -10 4 -5 6 3 20 -7 32 -24 12
-16 17 -30 11 -30 -17 0 -13 -19 9 -37 22 -19 28 -39 8 -26 -23 14 -113 42
-133 42 -11 0 1 -8 27 -17 26 -9 50 -20 54 -24 4 -5 16 -8 26 -8 10 0 21 -6
24 -14 4 -12 10 -12 35 1 44 22 97 26 149 13 25 -7 70 -15 100 -19 30 -3 66
-14 79 -23 13 -9 29 -14 36 -12 7 3 16 1 20 -5 8 -14 35 -14 35 0 0 5 -4 7
-10 4 -5 -3 -21 2 -35 11 -14 9 -28 14 -32 10 -9 -9 -33 14 -33 33 1 14 2 14
11 -1 10 -18 29 -25 29 -10 -1 4 -10 18 -21 31 l-20 24 -15 -22 c-14 -19 -22
-21 -58 -16 -48 8 -66 21 -66 45 0 22 18 29 95 40 72 11 183 -9 259 -46 42
-21 47 -22 28 -5 -29 25 -129 58 -215 70 -67 9 -102 25 -92 41 9 14 -15 23
-29 11 -7 -6 -16 -8 -20 -4 -4 4 -10 2 -15 -5 -4 -6 -21 -15 -38 -18 -26 -5
-37 -1 -57 19 -14 15 -26 33 -26 41 0 8 18 49 39 90 40 78 43 87 20 60z"/>
<path d="M3040 2480 c8 -5 20 -10 25 -10 6 0 3 5 -5 10 -8 5 -19 10 -25 10 -5
0 -3 -5 5 -10z"/>
<path d="M3046 2445 c4 -8 10 -15 15 -15 4 0 6 7 3 15 -4 8 -10 15 -15 15 -4
0 -6 -7 -3 -15z"/>
<path d="M7259 2433 c-13 -16 -12 -17 4 -4 16 13 21 21 13 21 -2 0 -10 -8 -17
-17z"/>
<path d="M1895 2434 c-5 -1 -22 -5 -37 -8 l-27 -6 20 -71 c19 -70 97 -236 147
-313 32 -49 133 -186 138 -186 1 0 -6 20 -17 45 -11 24 -28 77 -39 117 -11 40
-46 127 -80 192 -33 66 -60 131 -60 145 -1 31 -31 89 -45 85z"/>
<path d="M6720 2415 c-10 -12 -40 -91 -40 -106 0 -17 27 -9 54 16 15 14 31 25
37 25 12 0 28 41 22 56 -6 17 -61 23 -73 9z"/>
<path d="M1660 2393 c-36 -7 -42 -16 -30 -48 7 -19 7 -31 0 -40 -8 -9 -6 -24
5 -51 15 -36 58 -77 266 -253 l40 -33 -22 36 c-11 20 -26 33 -32 29 -6 -3 -7
-1 -3 5 4 6 -7 38 -24 71 -39 78 -91 209 -89 224 1 7 -1 24 -5 40 -7 23 -13
27 -45 26 -20 -1 -47 -4 -61 -6z"/>
<path d="M7190 2390 c0 -5 7 -7 15 -4 8 4 15 8 15 10 0 2 -7 4 -15 4 -8 0 -15
-4 -15 -10z"/>
<path d="M5695 2380 c3 -5 -3 -10 -14 -10 -33 0 -33 -17 -1 -29 18 -6 30 -6
30 0 0 5 9 9 19 9 11 0 23 5 27 12 5 8 0 9 -17 4 -13 -4 -35 -10 -49 -12 -18
-3 -16 0 8 9 18 7 30 16 26 20 -11 11 -36 8 -29 -3z"/>
<path d="M7211 2364 c0 -11 3 -14 6 -6 3 7 2 16 -1 19 -3 4 -6 -2 -5 -13z"/>
<path d="M1512 2362 c-9 -6 -4 -16 18 -37 35 -34 48 -28 30 15 -13 30 -25 36
-48 22z"/>
<path d="M7761 2354 c0 -11 3 -14 6 -6 3 7 2 16 -1 19 -3 4 -6 -2 -5 -13z"/>
<path d="M766 2333 c4 -16 14 -43 23 -61 l17 -33 31 60 32 61 -55 0 c-54 0
-54 0 -48 -27z"/>
<path d="M1335 2338 c-5 -7 -5 -10 0 -6 7 7 35 -34 35 -49 0 -3 -22 -3 -48 -1
-48 5 -49 4 -49 -23 0 -16 5 -25 10 -22 6 4 8 -6 4 -26 -13 -64 49 -284 120
-425 27 -53 37 -66 45 -55 8 11 9 10 4 -4 -6 -20 27 -80 39 -69 5 4 5 2 2 -4
-8 -14 41 -86 54 -79 5 4 8 1 7 -7 -2 -7 3 -12 10 -10 8 1 10 -2 7 -8 -7 -11
21 -50 36 -50 4 0 5 9 2 20 -3 11 -8 20 -12 20 -3 0 -6 21 -6 48 0 26 -17 160
-38 298 -43 290 -42 280 -23 265 18 -15 48 -3 44 18 -2 11 -14 16 -40 16 -26
1 -46 9 -65 26 -15 14 -38 35 -51 46 l-23 20 21 6 c15 4 21 12 18 28 -4 31
-33 47 -57 32 -12 -8 -22 -8 -29 -1 -6 6 -12 5 -17 -4z m69 -100 c-4 -6 -2 -8
4 -4 11 7 90 -59 81 -68 -3 -3 -15 3 -26 14 -22 20 -33 17 -33 -9 0 -12 2 -13
9 -3 12 20 31 -8 20 -33 -7 -19 -8 -19 -8 3 -1 12 -6 21 -13 20 -6 -2 -15 8
-19 22 -8 22 -8 21 -5 -7 1 -18 -1 -33 -6 -33 -4 0 -8 9 -8 20 0 11 -4 20 -10
20 -5 0 -10 -9 -10 -19 0 -11 -4 -23 -10 -26 -13 -8 -12 -4 1 53 16 69 18 74
29 67 6 -4 7 -11 4 -17z m-75 -123 c0 -5 -8 6 -19 25 -11 19 -19 42 -19 50 0
16 37 -58 38 -75z m26 -25 c3 -5 2 -10 -4 -10 -5 0 -13 5 -16 10 -3 6 -2 10 4
10 5 0 13 -4 16 -10z"/>
<path d="M6328 2292 c-10 -2 -18 -10 -18 -18 0 -8 8 -14 18 -14 14 0 15 2 2
10 -13 8 -12 10 3 10 9 0 17 -8 18 -17 0 -10 3 -13 5 -6 8 19 -9 39 -28 35z"/>
<path d="M7830 2206 c0 -2 8 -10 18 -17 15 -13 16 -12 3 4 -13 16 -21 21 -21
13z"/>
<path d="M7675 2141 c3 -11 1 -22 -5 -26 -5 -3 -10 -11 -10 -16 0 -6 4 -8 9
-4 5 3 16 -4 24 -15 7 -11 17 -17 22 -12 5 4 5 2 2 -4 -6 -11 29 -52 37 -43 2
2 6 33 9 69 3 37 3 52 -2 35 -7 -29 -7 -29 -15 -7 -6 17 -13 22 -28 19 -11 -3
-21 0 -25 9 -8 21 -25 17 -18 -5z"/>
<path d="M1624 2066 c3 -17 17 -116 31 -221 14 -104 28 -210 32 -235 l7 -45 5
40 c5 36 9 40 31 37 30 -4 51 -22 33 -29 -15 -6 -17 -43 -3 -43 6 0 10 -7 10
-15 0 -8 -4 -15 -10 -15 -5 0 -10 -11 -10 -25 0 -19 -5 -25 -21 -25 -11 0 -17
-5 -14 -10 4 -6 11 -7 17 -4 6 4 13 1 17 -5 9 -14 -3 -105 -19 -146 -10 -27
-13 -29 -24 -12 -18 23 -26 22 -26 -5 0 -17 3 -19 9 -9 12 18 21 0 23 -44 1
-20 5 -38 10 -41 6 -4 7 13 3 40 l-7 46 35 0 c32 0 40 6 68 48 18 26 59 77 91
114 36 40 60 77 62 95 3 22 8 27 25 26 28 -4 27 15 -1 19 -18 2 -23 10 -23 35
-1 18 -7 38 -14 45 -11 11 -12 10 -6 -2 5 -9 4 -12 -1 -7 -5 5 -9 14 -9 20 -1
7 -6 11 -13 9 -7 -1 -11 1 -10 5 5 14 -45 72 -56 66 -6 -3 -8 -3 -4 2 10 11
-72 106 -84 98 -6 -3 -8 -1 -5 4 12 19 -30 61 -56 56 -20 -4 -23 0 -25 32 -2
28 0 35 10 29 40 -23 127 -107 185 -178 131 -158 281 -291 463 -409 47 -30
143 -107 213 -171 90 -82 135 -116 152 -116 14 0 25 5 25 11 0 5 -4 7 -10 4
-5 -3 -10 1 -10 9 0 9 -5 16 -11 16 -5 0 -7 5 -4 10 4 6 2 9 -3 8 -5 -2 -33
29 -62 67 -29 39 -57 75 -63 80 -16 17 14 -38 41 -73 14 -18 22 -35 18 -39 -3
-3 -6 -1 -6 6 0 7 -5 9 -12 5 -6 -4 -8 -3 -4 4 3 5 3 12 -1 14 -5 1 -43 47
-86 101 -44 53 -81 97 -83 97 -2 0 19 -33 48 -72 28 -40 45 -67 36 -61 -8 7
-19 9 -23 5 -5 -4 -4 -1 0 7 6 11 4 13 -8 8 -11 -4 -14 -2 -10 9 3 7 1 14 -4
14 -17 0 -74 60 -67 72 4 6 3 8 -3 5 -6 -4 -56 44 -111 106 -101 114 -177 189
-109 108 20 -24 34 -48 30 -54 -3 -6 -1 -7 4 -4 6 4 21 -7 34 -24 13 -16 34
-41 47 -55 46 -52 20 -39 -40 19 -16 15 -34 27 -40 27 -6 0 -9 2 -6 5 3 3 -11
22 -31 43 -20 21 -61 66 -91 102 -62 71 -123 137 -99 106 8 -12 23 -32 32 -46
9 -14 29 -41 44 -60 15 -19 -42 33 -127 115 -181 176 -156 152 -205 195 -22
19 3 -10 55 -64 139 -144 74 -96 -108 80 -71 69 -74 70 -68 40z m130 -179 c3
-12 6 -39 6 -59 0 -31 -4 -38 -19 -38 -11 0 -26 -2 -33 -5 -12 -5 -13 6 -10
57 3 35 9 66 15 70 16 10 34 -1 41 -25z m176 -72 c13 -14 21 -25 18 -25 -2 0
-15 11 -28 25 -13 14 -21 25 -18 25 2 0 15 -11 28 -25z m-167 -57 c-2 -5 -3
-26 -3 -48 0 -39 -1 -40 -34 -40 l-33 0 7 42 c5 24 6 47 3 51 -3 5 10 7 28 5
19 -2 33 -6 32 -10z m87 -278 c0 -5 -4 -10 -10 -10 -5 0 -10 5 -10 10 0 6 5
10 10 10 6 0 10 -4 10 -10z"/>
<path d="M910 2067 c0 -7 25 -25 56 -40 l56 -28 -4 -54 c-4 -53 -4 -53 25 -58
l30 -4 -7 59 c-3 33 -8 64 -12 69 -7 11 -119 69 -134 69 -5 0 -10 -6 -10 -13z"/>
<path d="M7658 2049 c12 -14 19 -29 15 -34 -5 -4 -3 -5 4 -1 14 8 71 -61 102
-121 l21 -43 -35 -38 c-33 -37 -34 -39 -18 -62 10 -13 27 -51 39 -83 11 -33
24 -55 27 -50 25 40 31 243 7 228 -4 -3 -13 9 -19 27 -14 39 -14 41 1 32 7 -4
8 -3 4 5 -4 6 -11 9 -15 6 -5 -2 -20 12 -34 33 -28 43 -61 79 -97 107 l-25 20
23 -26z"/>
<path d="M7600 1932 c-8 -4 -16 -11 -16 -17 -1 -5 -4 -25 -7 -42 -7 -37 17
-59 44 -42 7 5 22 9 33 9 15 0 17 -6 14 -30 -6 -41 4 -45 24 -10 15 26 15 28
1 23 -11 -4 -14 -2 -9 5 4 7 2 12 -5 12 -7 0 -10 3 -6 6 7 8 -17 34 -32 34 -5
0 -8 9 -6 19 3 15 0 18 -12 14 -12 -5 -15 -2 -10 10 3 9 5 17 4 16 -1 0 -9 -3
-17 -7z"/>
<path d="M7417 1889 c-9 -5 -22 -7 -29 -3 -7 5 -8 3 -4 -5 5 -7 14 -10 21 -7
7 2 17 0 22 -5 5 -5 9 -1 9 11 0 11 0 20 -1 20 0 0 -8 -5 -18 -11z"/>
<path d="M1010 1861 c0 -11 9 -25 21 -31 11 -7 27 -26 34 -43 l14 -32 0 45 c1
54 -5 65 -41 74 -24 5 -28 3 -28 -13z"/>
<path d="M7375 1849 c-4 -6 -5 -12 -2 -15 2 -3 7 2 10 11 7 17 1 20 -8 4z"/>
<path d="M7417 1849 c7 -7 15 -10 18 -7 3 3 -2 9 -12 12 -14 6 -15 5 -6 -5z"/>
<path d="M7425 1820 c3 -5 8 -10 11 -10 2 0 4 5 4 10 0 6 -5 10 -11 10 -5 0
-7 -4 -4 -10z"/>
<path d="M7480 1756 c0 -2 7 -7 16 -10 8 -3 12 -2 9 4 -6 10 -25 14 -25 6z"/>
<path d="M7402 1710 c0 -14 2 -19 5 -12 2 6 2 18 0 25 -3 6 -5 1 -5 -13z"/>
<path d="M6285 1676 c-23 -40 -32 -46 -93 -64 -37 -12 -85 -24 -107 -28 -50
-9 -120 -38 -131 -55 -5 -9 -2 -10 12 -5 50 21 125 45 146 47 13 2 38 -7 57
-20 44 -31 38 -56 -34 -162 -64 -93 -105 -172 -128 -244 -24 -74 -47 -209 -47
-272 0 -37 -4 -52 -11 -47 -6 3 -3 -5 6 -20 10 -14 19 -26 21 -26 1 0 3 48 3
107 1 130 26 244 81 358 43 90 123 205 143 205 7 0 30 9 52 20 l39 20 31 -24
c17 -13 39 -25 50 -27 37 -8 147 -320 179 -509 9 -52 17 -145 18 -207 l2 -112
49 19 c173 66 317 224 362 397 25 96 22 150 -13 219 -80 158 -220 269 -407
323 -130 37 -185 65 -209 107 -11 20 -26 39 -33 41 -6 2 -23 -16 -38 -41z m49
16 c3 -5 -1 -9 -9 -9 -8 0 -12 4 -9 9 3 4 7 8 9 8 2 0 6 -4 9 -8z"/>
<path d="M7371 1704 c0 -11 3 -14 6 -6 3 7 2 16 -1 19 -3 4 -6 -2 -5 -13z"/>
<path d="M1144 1575 c-8 -19 -59 -34 -119 -33 -41 0 -46 2 -25 9 23 8 22 8 -5
4 -50 -8 -101 -13 -82 -8 9 2 17 9 17 14 0 12 -43 7 -52 -6 -4 -5 -8 -1 -8 10
0 15 -2 17 -9 6 -5 -7 -14 -10 -20 -7 -6 4 -11 2 -11 -3 0 -6 8 -12 18 -13 31
-2 37 -3 47 -10 16 -10 178 -9 215 2 23 7 36 7 38 0 2 -5 13 -11 25 -11 17 -1
18 -2 5 -6 -15 -4 -18 -16 -18 -79 0 -41 4 -74 9 -74 4 0 6 32 3 70 -3 48 -1
70 7 70 6 0 11 -17 12 -37 0 -30 2 -34 9 -18 17 40 23 60 21 69 -1 5 5 6 13 3
10 -4 13 -1 10 8 -3 8 -12 11 -20 8 -9 -3 -13 -12 -10 -19 6 -16 -10 -28 -19
-14 -4 6 7 23 24 37 30 27 45 57 17 34 -11 -9 -20 -9 -35 -2 -28 15 -51 14
-57 -4z"/>
<path d="M950 1559 c0 -5 5 -7 10 -4 6 3 10 8 10 11 0 2 -4 4 -10 4 -5 0 -10
-5 -10 -11z"/>
<path d="M1035 1560 c3 -5 16 -10 28 -9 21 0 21 1 2 9 -28 12 -37 12 -30 0z"/>
<path d="M1222 1460 c0 -14 2 -19 5 -12 2 6 2 18 0 25 -3 6 -5 1 -5 -13z"/>
<path d="M1692 1420 c0 -19 2 -27 5 -17 2 9 2 25 0 35 -3 9 -5 1 -5 -18z"/>
<path d="M1194 1417 c3 -10 6 -24 7 -30 0 -7 5 -1 10 12 5 13 7 26 4 29 -3 3
-5 -1 -5 -9 0 -12 -2 -11 -11 1 -9 12 -10 12 -5 -3z"/>
<path d="M1652 1355 c0 -16 2 -22 5 -12 2 9 2 23 0 30 -3 6 -5 -1 -5 -18z"/>
<path d="M1195 1360 c-3 -5 -1 -10 4 -10 6 0 11 5 11 10 0 6 -2 10 -4 10 -3 0
-8 -4 -11 -10z"/>
<path d="M1700 1350 c0 -5 5 -10 11 -10 5 0 7 5 4 10 -3 6 -8 10 -11 10 -2 0
-4 -4 -4 -10z"/>
<path d="M4836 1326 c-29 -39 -34 -55 -10 -35 15 12 48 69 40 69 -2 0 -15 -15
-30 -34z"/>
<path d="M1151 1308 c-1 -38 2 -46 14 -42 9 4 15 19 15 38 0 22 -3 27 -9 17
-7 -11 -10 -9 -14 10 -2 13 -5 3 -6 -23z"/>
<path d="M1206 1305 c8 -37 14 -45 14 -19 0 10 -5 26 -10 34 -8 11 -9 7 -4
-15z"/>
<path d="M3413 1304 c-27 -27 -30 -25 96 -49 47 -8 86 -17 89 -19 2 -3 -16
-13 -40 -24 -42 -18 -44 -21 -40 -56 2 -20 8 -36 12 -36 5 0 36 12 70 27 47
20 59 30 54 42 -20 47 -17 60 17 74 l34 14 -64 8 c-36 4 -97 15 -135 24 -71
17 -71 17 -93 -5z"/>
<path d="M1646 1283 c8 -50 14 -55 14 -10 0 20 -5 39 -10 42 -6 4 -8 -7 -4
-32z"/>
<path d="M4864 1275 c-9 -14 -14 -28 -11 -31 3 -3 13 8 22 25 19 37 12 41 -11
6z"/>
<path d="M960 1234 c0 -68 25 -182 56 -251 30 -69 100 -143 169 -177 81 -42
206 -48 306 -16 137 44 276 166 344 303 43 87 46 111 9 97 -34 -13 -117 -13
-109 0 3 6 -1 10 -10 10 -9 0 -13 -4 -10 -10 3 -5 1 -10 -4 -10 -6 0 -11 21
-11 50 0 61 -20 68 -21 8 -1 -24 -1 -47 0 -51 1 -5 -3 -6 -9 -2 -5 3 -10 1
-10 -6 0 -9 -39 -10 -167 -5 -179 7 -276 19 -281 36 -2 5 -8 8 -13 4 -5 -3 -9
3 -10 13 0 10 -3 13 -6 6 -6 -16 -24 -17 -20 -2 1 6 -4 14 -12 17 -8 2 -11 0
-7 -6 15 -25 -19 -21 -99 12 l-85 34 0 -54z m213 -58 c103 -39 229 -59 327
-52 279 20 270 20 270 4 0 -21 -45 -64 -99 -96 -51 -30 -180 -74 -192 -66 -5
3 -9 0 -9 -6 0 -6 -4 -9 -8 -6 -5 3 -37 6 -73 7 -104 3 -238 74 -221 118 5 13
3 14 -9 4 -25 -21 -86 87 -62 110 8 9 1 11 76 -17z m130 -241 c-3 -9 -8 -14
-10 -11 -3 3 -2 9 2 15 9 16 15 13 8 -4z"/>
<path d="M1570 1051 c0 -6 5 -13 10 -16 6 -3 10 1 10 9 0 9 -4 16 -10 16 -5 0
-10 -4 -10 -9z"/>
<path d="M1287 1033 c-10 -9 -9 -23 2 -23 5 0 11 7 15 15 5 15 -5 20 -17 8z"/>
<path d="M1430 1019 c0 -11 4 -18 10 -14 5 3 7 12 3 20 -7 21 -13 19 -13 -6z"/>
<path d="M2802 1215 c66 -57 103 -70 183 -63 l40 3 -55 19 c-30 10 -93 36
-139 57 -46 22 -86 39 -88 39 -2 0 24 -25 59 -55z"/>
<path d="M1188 1253 c7 -3 16 -2 19 1 4 3 -2 6 -13 5 -11 0 -14 -3 -6 -6z"/>
<path d="M3165 1221 l-50 -6 55 -14 c53 -15 144 -16 164 -3 11 6 -78 33 -104
30 -8 -1 -37 -4 -65 -7z"/>
<path d="M2455 1205 c-136 -48 -496 -185 -476 -181 14 3 95 13 180 22 161 17
148 14 415 114 l30 11 -53 24 c-29 14 -54 25 -54 25 -1 -1 -20 -7 -42 -15z"/>
<path d="M2780 1160 c12 -16 24 -30 26 -30 3 0 -4 14 -16 30 -12 17 -24 30
-26 30 -3 0 4 -13 16 -30z"/>
<path d="M3322 1118 c-7 -7 -12 -18 -12 -25 0 -7 -10 -15 -22 -18 -86 -20
-212 -44 -215 -41 -3 2 10 7 28 11 18 4 51 16 73 26 23 11 32 17 21 14 -77
-23 -138 -36 -187 -39 -31 -3 -65 -9 -76 -15 -29 -15 -30 -14 -34 16 -7 63
-108 69 -108 6 0 -24 -7 -31 -46 -47 -25 -10 -58 -19 -73 -21 -15 -1 -33 -5
-39 -9 -7 -4 -22 -4 -35 -1 -16 5 -18 4 -8 -3 10 -7 3 -10 -24 -10 l-38 0 39
17 c22 10 56 24 77 30 21 7 36 15 34 17 -2 3 -58 -13 -123 -35 -65 -22 -122
-37 -126 -35 -4 3 -8 0 -8 -6 0 -7 -7 -10 -15 -6 -8 3 -27 1 -42 -5 -24 -9
-25 -8 -12 7 8 10 33 26 57 36 23 10 42 21 42 24 0 5 -35 -10 -132 -55 -80
-38 -93 -39 -48 -6 45 33 33 32 -38 -4 -41 -21 -78 -30 -129 -34 l-72 -6 32
30 32 31 -45 -30 c-51 -33 -80 -44 -129 -48 l-33 -3 23 26 24 26 -30 -18 c-16
-11 -38 -25 -47 -33 -10 -8 -18 -12 -18 -8 0 4 -9 2 -21 -4 -11 -7 -19 -13
-17 -16 3 -2 56 3 119 11 186 24 891 105 915 105 14 0 54 -27 100 -67 43 -38
160 -141 262 -230 101 -90 189 -160 195 -156 5 3 7 2 4 -4 -6 -9 21 -39 65
-71 24 -19 87 9 85 37 0 11 -4 19 -8 18 -4 -1 -44 33 -89 77 -44 43 -83 77
-85 75 -2 -3 25 -35 61 -72 36 -37 60 -67 55 -67 -5 0 -17 7 -25 16 -9 8 -20
13 -26 9 -5 -3 -7 0 -5 8 3 7 -11 26 -33 44 -22 18 -56 57 -76 87 -20 31 -43
56 -51 56 -7 0 -15 3 -17 8 -2 4 -21 23 -42 42 l-40 35 33 -43 c57 -74 27 -56
-39 23 -34 42 -65 74 -67 71 -3 -3 2 -12 11 -21 20 -20 20 -22 1 -22 -8 0 -13
2 -10 5 2 3 -9 22 -25 42 -38 47 -39 61 -2 29 l27 -24 -24 27 c-14 16 -27 26
-29 23 -3 -3 -17 5 -30 17 l-25 23 19 -35 c10 -19 24 -38 29 -42 7 -5 6 -8 -1
-8 -12 0 -54 46 -54 60 0 6 -3 9 -7 8 -5 -2 -19 5 -33 15 -22 15 -23 17 -5 18
11 0 29 2 40 4 11 2 114 15 229 29 156 19 213 29 227 42 24 21 24 34 2 34 -15
0 -16 -2 -3 -10 15 -10 15 -10 -27 -10 -5 0 -8 8 -8 18 0 17 -29 41 -50 42 -6
0 -16 -5 -23 -12z m-517 -118 c-27 -12 -43 -12 -25 0 8 5 22 9 30 9 10 0 8 -3
-5 -9z"/>
<path d="M5825 976 c-14 -14 -34 -26 -43 -27 -10 0 -12 -3 -4 -6 6 -2 12 -11
12 -19 0 -8 -6 -11 -15 -8 -9 4 -31 -8 -55 -30 -22 -19 -51 -38 -64 -42 -14
-3 -28 -15 -31 -25 -4 -10 -12 -19 -20 -19 -7 0 -16 -6 -19 -12 -3 -9 -8 -8
-16 5 -6 9 -20 17 -30 17 -10 0 -21 4 -24 9 -3 5 -15 7 -26 4 -13 -4 -20 0
-20 10 0 9 -13 17 -35 21 -38 8 -75 0 -75 -14 0 -12 59 -56 86 -64 11 -3 31
-17 43 -29 l21 -24 -47 -31 c-60 -38 -153 -124 -153 -140 0 -23 233 -22 277 1
18 9 34 17 37 17 10 0 76 -128 76 -148 0 -11 4 -23 8 -26 12 -7 53 5 47 14 -3
5 3 11 12 14 27 9 56 83 48 124 -3 18 -8 39 -10 45 -3 7 -1 18 4 26 7 11 22 9
85 -13 42 -14 90 -26 107 -26 51 0 99 33 99 69 0 4 -15 12 -33 19 -18 6 -56
32 -85 56 -40 35 -63 46 -100 51 -26 4 -53 8 -59 10 -24 8 -14 80 18 140 36
67 27 94 -16 51z m-405 -146 c0 -5 -4 -10 -10 -10 -5 0 -10 5 -10 10 0 6 5 10
10 10 6 0 10 -4 10 -10z m210 -50 c0 -5 -5 -10 -11 -10 -5 0 -7 5 -4 10 3 6 8
10 11 10 2 0 4 -4 4 -10z m10 -40 c0 -5 -4 -10 -10 -10 -5 0 -10 5 -10 10 0 6
5 10 10 10 6 0 10 -4 10 -10z m304 -22 c11 -10 23 -18 27 -18 8 0 79 -69 79
-78 0 -3 -9 3 -19 12 -13 12 -21 14 -26 6 -5 -8 -14 -7 -31 4 -19 13 -22 14
-18 2 5 -12 -4 -12 -53 3 -60 18 -103 40 -103 53 0 13 59 33 93 33 18 0 41 -8
51 -17z m-434 -22 c0 -15 -14 -35 -21 -30 -5 3 -9 -2 -9 -10 0 -9 -8 -16 -19
-16 -11 0 -28 -3 -38 -6 -10 -3 0 11 21 30 34 31 66 46 66 32z m30 -45 c0 -5
-9 -11 -20 -14 -22 -6 -26 3 -8 21 11 11 28 7 28 -7z m165 9 c-3 -5 -11 -10
-16 -10 -6 0 -7 5 -4 10 3 6 11 10 16 10 6 0 7 -4 4 -10z m54 -49 c17 -30 24
-98 13 -105 -6 -4 -9 -13 -6 -21 4 -8 -1 -18 -10 -21 -9 -3 -14 -10 -11 -14 9
-14 -16 -23 -28 -11 -8 8 -8 11 1 11 7 0 12 7 12 15 0 20 -42 105 -52 105 -14
0 -8 20 12 40 25 25 56 26 69 1z m-349 -1 c0 -5 -4 -10 -10 -10 -5 0 -10 5
-10 10 0 6 5 10 10 10 6 0 10 -4 10 -10z m50 -11 c0 -11 -4 -17 -10 -14 -5 3
-10 13 -10 21 0 8 5 14 10 14 6 0 10 -9 10 -21z m-90 -19 c0 -5 -2 -10 -4 -10
-3 0 -8 5 -11 10 -3 6 -1 10 4 10 6 0 11 -4 11 -10z"/>
<path d="M8750 893 c12 -19 12 -24 -3 -41 -25 -28 -77 -40 -217 -52 -167 -15
-182 -20 -34 -14 184 8 274 35 274 84 0 10 -7 24 -17 31 -15 13 -15 12 -3 -8z"/>
<path d="M242 880 c23 -38 140 -98 225 -115 15 -3 0 5 -35 18 -34 14 -80 36
-102 51 -22 14 -43 26 -47 26 -4 0 -18 10 -32 23 l-25 22 16 -25z"/>
<path d="M5926 848 c3 -5 10 -6 15 -3 13 9 11 12 -6 12 -8 0 -12 -4 -9 -9z"/>
<path d="M938 673 c6 -2 18 -2 25 0 6 3 1 5 -13 5 -14 0 -19 -2 -12 -5z"/>
<path d="M8518 653 c-25 -114 -425 -200 -1020 -220 -109 -3 -195 -10 -191 -14
18 -18 636 25 833 57 241 40 399 116 388 186 -3 20 -4 19 -10 -9z"/>
<path d="M1023 663 c9 -2 25 -2 35 0 9 3 1 5 -18 5 -19 0 -27 -2 -17 -5z"/>
<path d="M1113 653 c15 -2 37 -2 50 0 12 2 0 4 -28 4 -27 0 -38 -2 -22 -4z"/>
<path d="M1238 643 c18 -2 45 -2 60 0 15 2 0 4 -33 4 -33 0 -45 -2 -27 -4z"/>
<path d="M1393 633 c20 -2 54 -2 75 0 20 2 3 4 -38 4 -41 0 -58 -2 -37 -4z"/>
<path d="M1555 624 c47 -7 213 -9 202 -2 -6 4 -59 7 -117 6 -58 0 -96 -2 -85
-4z"/>
<path d="M3550 571 c0 -6 4 -13 10 -16 6 -3 7 1 4 9 -7 18 -14 21 -14 7z"/>
<path d="M3640 520 c0 -5 5 -10 10 -10 6 0 10 5 10 10 0 6 -4 10 -10 10 -5 0
-10 -4 -10 -10z"/>
<path d="M1505 499 c-4 -6 -5 -12 -2 -15 2 -3 7 2 10 11 7 17 1 20 -8 4z"/>
<path d="M3590 440 l-55 -29 57 -1 c57 0 94 18 85 44 -6 19 -30 16 -87 -14z"/>
<path d="M1524 432 c55 -61 358 -133 746 -176 186 -21 492 -46 543 -45 23 1
-30 8 -118 15 -635 54 -959 109 -1119 190 -55 28 -67 32 -52 16z"/>
<path d="M7343 299 c-11 -11 -49 -31 -84 -44 -35 -13 -59 -24 -52 -24 40 -2
177 68 162 83 -3 3 -14 -4 -26 -15z"/>
<path d="M7158 223 c6 -2 18 -2 25 0 6 3 1 5 -13 5 -14 0 -19 -2 -12 -5z"/>
<path d="M7108 213 c6 -2 18 -2 25 0 6 3 1 5 -13 5 -14 0 -19 -2 -12 -5z"/>
<path d="M2903 203 c20 -2 54 -2 75 0 20 2 3 4 -38 4 -41 0 -58 -2 -37 -4z"/>
<path d="M7043 203 c9 -2 25 -2 35 0 9 3 1 5 -18 5 -19 0 -27 -2 -17 -5z"/>
<path d="M3078 193 c23 -2 59 -2 80 0 20 2 1 4 -43 4 -44 0 -61 -2 -37 -4z"/>
<path d="M6963 193 c9 -2 25 -2 35 0 9 3 1 5 -18 5 -19 0 -27 -2 -17 -5z"/>
<path d="M3273 183 c26 -2 67 -2 90 0 23 2 2 3 -48 3 -49 0 -68 -1 -42 -3z"/>
<path d="M6863 183 c15 -2 37 -2 50 0 12 2 0 4 -28 4 -27 0 -38 -2 -22 -4z"/>
<path d="M3508 173 c34 -2 88 -2 120 0 31 2 3 3 -63 3 -66 0 -92 -1 -57 -3z"/>
<path d="M6717 173 c18 -2 50 -2 70 0 21 2 7 4 -32 4 -38 0 -55 -2 -38 -4z"/>
<path d="M3833 163 c54 -2 139 -2 190 0 51 1 7 3 -98 3 -104 0 -146 -2 -92 -3z"/>
<path d="M6553 163 c26 -2 67 -2 90 0 23 2 2 3 -48 3 -49 0 -68 -1 -42 -3z"/>
<path d="M4338 153 c89 -2 235 -2 325 0 89 1 16 3 -163 3 -179 0 -252 -2 -162
-3z"/>
<path d="M6303 153 c37 -2 97 -2 135 0 37 2 6 3 -68 3 -74 0 -105 -1 -67 -3z"/>
<path d="M5258 143 c6 -2 18 -2 25 0 6 3 1 5 -13 5 -14 0 -19 -2 -12 -5z"/>
<path d="M5333 143 c9 -2 25 -2 35 0 9 3 1 5 -18 5 -19 0 -27 -2 -17 -5z"/>
<path d="M5588 143 c111 -2 293 -2 405 0 111 1 20 2 -203 2 -223 0 -314 -1
-202 -2z"/>
</g>
</svg>
